M48
INCH
T01C0.0150
T02C0.0400
T03C0.0300
T04C0.0320
%
T01
X-005409Y-003951
X+001109Y+001029
X+000405Y+001338
X-000043Y+002066
X-002779Y+001429
X-003076Y-001236
X-003385Y+000358
X+003275Y-000507
X+001850Y-000685
X+000671Y-002247
X-001397Y-001602
X-001003Y-001602
X-000614Y-001604
X-001397Y-001208
X-001398Y-000817
X-001394Y-000416
X-001003Y-000425
X-000606Y-000425
X-000223Y-000425
X-000215Y-000821
X-000218Y-001222
X-001003Y-000813
X-000614Y-000821
X-000610Y-001214
X-001011Y-001204
X+003623Y+001885
X+003518Y+001168
X-002305Y+002190
X-003903Y+002057
X+000597Y-004961
X-002769Y-004918
X-004651Y-004936
X-002680Y-002459
X-000219Y-001604
X+001996Y+000346
X-005100Y+002190
X+003223Y-001213
T02
X+004842Y+001566
X+004842Y+000566
X-004976Y+000881
X-003976Y+000881
X-004976Y-000118
X-003976Y-000118
X-004976Y-001118
X-003976Y-001118
X-004976Y-002118
X-003976Y-002118
X-004976Y-003118
X-003976Y-003118
X+005299Y-000507
X+004299Y-000507
T03
X-002640Y-003240
X-001640Y-003240
X-000640Y-003240
X-000640Y-006240
X-001640Y-006240
X-002640Y-006240
T04
X+005191Y-002419
X+005181Y-005728
M30
