M48
INCH
T01C0.0150
T02C0.0400
T03C0.0300
T04C0.0320
%
T01
X-005433Y-003589
X+001085Y+001391
X+000381Y+001700
X-000066Y+002429
X-002803Y+001791
X-003100Y-000873
X-003409Y+000720
X+003251Y-000145
X+001826Y-000322
X+000648Y-001885
X-001421Y-001240
X-001027Y-001240
X-000638Y-001242
X-001421Y-000846
X-001421Y-000454
X-001418Y-000054
X-001027Y-000062
X-000629Y-000062
X-000247Y-000063
X-000239Y-000459
X-000241Y-000860
X-001027Y-000451
X-000637Y-000459
X-000633Y-000852
X-001035Y-000842
X+003600Y+002247
X+003494Y+001530
X-002329Y+002552
X-003927Y+002419
X+000573Y-004599
X-002793Y-004556
X-004674Y-004574
X-002704Y-002096
X-000242Y-001242
X+001972Y+000708
X-005124Y+002552
X+003199Y-000851
T02
X+004818Y+001929
X+004818Y+000929
X-005000Y+001244
X-004000Y+001244
X-005000Y+000244
X-004000Y+000244
X-005000Y-000755
X-004000Y-000755
X-005000Y-001755
X-004000Y-001755
X-005000Y-002755
X-004000Y-002755
X+005275Y-000145
X+004275Y-000145
T03
X-002663Y-002877
X-001663Y-002877
X-000663Y-002877
X-000663Y-005877
X-001663Y-005877
X-002663Y-005877
T04
X+005167Y-002056
X+005157Y-005366
M30
